<mxGraphModel dx="1140" dy="851" grid="1" gridSize="10" guides="1" tooltips="1" connect="1" arrows="1" fold="1" page="1" pageScale="1" pageWidth="1654" pageHeight="1169" math="0" shadow="0"><root><mxCell id="0"/><mxCell id="1" parent="0"/><mxCell id="title-main" value="Roadmap: MVP Депозиты + Передача ставок (14 недель)" style="text;html=1;align=center;verticalAlign=middle;whiteSpace=wrap;rounded=0;fontStyle=1;fontSize=16;" parent="1" vertex="1"><mxGeometry x="40" y="20" width="1160" height="30" as="geometry"/></mxCell><mxCell id="header-w1-6" value="Недели 1-6: Task 3 (MVP Депозиты)" style="rounded=0;whiteSpace=wrap;html=1;fillColor=#d5e8d4;strokeColor=#82b366;fontStyle=1;fontSize=12;" parent="1" vertex="1"><mxGeometry x="200" y="60" width="240" height="40" as="geometry"/></mxCell><mxCell id="header-w7-14" value="Недели 7-14: Task 4 (Передача ставок)" style="rounded=0;whiteSpace=wrap;html=1;fillColor=#ffe6cc;strokeColor=#d79b00;fontStyle=1;fontSize=12;" parent="1" vertex="1"><mxGeometry x="440" y="60" width="320" height="40" as="geometry"/></mxCell><mxCell id="header-post" value="Месяцы 5-12: Post-MVP" style="rounded=0;whiteSpace=wrap;html=1;fillColor=#f8cecc;strokeColor=#b85450;fontStyle=1;fontSize=12;" parent="1" vertex="1"><mxGeometry x="760" y="60" width="440" height="40" as="geometry"/></mxCell><mxCell id="label-deposit" value="Deposit Service" style="rounded=0;whiteSpace=wrap;html=1;fillColor=#e1d5e7;strokeColor=#9673a6;fontStyle=1;align=left;verticalAlign=middle;spacingLeft=10;fontSize=11;" parent="1" vertex="1"><mxGeometry x="40" y="120" width="160" height="40" as="geometry"/></mxCell><mxCell id="task-deposit" value="Разработка MVP" style="rounded=1;whiteSpace=wrap;html=1;fillColor=#d5e8d4;strokeColor=#82b366;fontSize=10;" parent="1" vertex="1"><mxGeometry x="210" y="127" width="120" height="26" as="geometry"/></mxCell><mxCell id="label-rate" value="Rate Service" style="rounded=0;whiteSpace=wrap;html=1;fillColor=#e1d5e7;strokeColor=#9673a6;fontStyle=1;align=left;verticalAlign=middle;spacingLeft=10;fontSize=11;" parent="1" vertex="1"><mxGeometry x="40" y="170" width="160" height="40" as="geometry"/></mxCell><mxCell id="task-rate" value="Rate Management" style="rounded=1;whiteSpace=wrap;html=1;fillColor=#d5e8d4;strokeColor=#82b366;fontSize=10;" parent="1" vertex="1"><mxGeometry x="210" y="177" width="120" height="26" as="geometry"/></mxCell><mxCell id="label-abs" value="АБС Интеграция" style="rounded=0;whiteSpace=wrap;html=1;fillColor=#e1d5e7;strokeColor=#9673a6;fontStyle=1;align=left;verticalAlign=middle;spacingLeft=10;fontSize=11;" parent="1" vertex="1"><mxGeometry x="40" y="220" width="160" height="40" as="geometry"/></mxCell><mxCell id="task-abs" value="SOAP с АБС" style="rounded=1;whiteSpace=wrap;html=1;fillColor=#d5e8d4;strokeColor=#82b366;fontSize=10;" parent="1" vertex="1"><mxGeometry x="250" y="227" width="140" height="26" as="geometry"/></mxCell><mxCell id="label-web" value="Веб-интеграция" style="rounded=0;whiteSpace=wrap;html=1;fillColor=#e1d5e7;strokeColor=#9673a6;fontStyle=1;align=left;verticalAlign=middle;spacingLeft=10;fontSize=11;" parent="1" vertex="1"><mxGeometry x="40" y="270" width="160" height="40" as="geometry"/></mxCell><mxCell id="task-web" value="Сайт + Интернет-банк" style="rounded=1;whiteSpace=wrap;html=1;fillColor=#d5e8d4;strokeColor=#82b366;fontSize=10;" parent="1" vertex="1"><mxGeometry x="290" y="277" width="140" height="26" as="geometry"/></mxCell><mxCell id="label-infra" value="Инфраструктура Task 4" style="rounded=0;whiteSpace=wrap;html=1;fillColor=#e1d5e7;strokeColor=#9673a6;fontStyle=1;align=left;verticalAlign=middle;spacingLeft=10;fontSize=11;" parent="1" vertex="1"><mxGeometry x="40" y="320" width="160" height="40" as="geometry"/></mxCell><mxCell id="task-infra" value="Redis + SFTP (2 нед)" style="rounded=1;whiteSpace=wrap;html=1;fillColor=#ffe6cc;strokeColor=#d79b00;fontSize=10;" parent="1" vertex="1"><mxGeometry x="450" y="327" width="80" height="26" as="geometry"/></mxCell><mxCell id="label-api" value="Rate API" style="rounded=0;whiteSpace=wrap;html=1;fillColor=#e1d5e7;strokeColor=#9673a6;fontStyle=1;align=left;verticalAlign=middle;spacingLeft=10;fontSize=11;" parent="1" vertex="1"><mxGeometry x="40" y="370" width="160" height="40" as="geometry"/></mxCell><mxCell id="task-api" value="API + Redis Cache" style="rounded=1;whiteSpace=wrap;html=1;fillColor=#ffe6cc;strokeColor=#d79b00;fontSize=10;" parent="1" vertex="1"><mxGeometry x="530" y="377" width="120" height="26" as="geometry"/></mxCell><mxCell id="label-filegen" value="File Generator" style="rounded=0;whiteSpace=wrap;html=1;fillColor=#e1d5e7;strokeColor=#9673a6;fontStyle=1;align=left;verticalAlign=middle;spacingLeft=10;fontSize=11;" parent="1" vertex="1"><mxGeometry x="40" y="420" width="160" height="40" as="geometry"/></mxCell><mxCell id="task-filegen" value="Generator + Scheduler" style="rounded=1;whiteSpace=wrap;html=1;fillColor=#ffe6cc;strokeColor=#d79b00;fontSize=10;" parent="1" vertex="1"><mxGeometry x="530" y="427" width="140" height="26" as="geometry"/></mxCell><mxCell id="label-integration" value="Интеграция" style="rounded=0;whiteSpace=wrap;html=1;fillColor=#e1d5e7;strokeColor=#9673a6;fontStyle=1;align=left;verticalAlign=middle;spacingLeft=10;fontSize=11;" parent="1" vertex="1"><mxGeometry x="40" y="470" width="160" height="40" as="geometry"/></mxCell><mxCell id="task-integration" value="Кол-центры (2 нед)" style="rounded=1;whiteSpace=wrap;html=1;fillColor=#ffe6cc;strokeColor=#d79b00;fontSize=10;" parent="1" vertex="1"><mxGeometry x="670" y="477" width="80" height="26" as="geometry"/></mxCell><mxCell id="label-testing" value="Testing" style="rounded=0;whiteSpace=wrap;html=1;fillColor=#e1d5e7;strokeColor=#9673a6;fontStyle=1;align=left;verticalAlign=middle;spacingLeft=10;fontSize=11;" parent="1" vertex="1"><mxGeometry x="40" y="520" width="160" height="40" as="geometry"/></mxCell><mxCell id="task-testing" value="Go-Live (1 нед)" style="rounded=1;whiteSpace=wrap;html=1;fillColor=#ffe6cc;strokeColor=#d79b00;fontSize=10;" parent="1" vertex="1"><mxGeometry x="730" y="527" width="40" height="26" as="geometry"/></mxCell><mxCell id="label-postmvp" value="Post-MVP улучшения" style="rounded=0;whiteSpace=wrap;html=1;fillColor=#e1d5e7;strokeColor=#9673a6;fontStyle=1;align=left;verticalAlign=middle;spacingLeft=10;fontSize=11;" parent="1" vertex="1"><mxGeometry x="40" y="570" width="160" height="40" as="geometry"/></mxCell><mxCell id="task-postmvp" value="Kafka, Мониторинг, Масштабирование, Оптимизация" style="rounded=1;whiteSpace=wrap;html=1;fillColor=#f8cecc;strokeColor=#b85450;fontSize=10;" parent="1" vertex="1"><mxGeometry x="770" y="577" width="420" height="26" as="geometry"/></mxCell><mxCell id="timeline" value="Timeline: 14 недель (3.5 месяца)" style="text;html=1;strokeColor=#6c8ebf;fillColor=#dae8fc;align=center;verticalAlign=middle;whiteSpace=wrap;rounded=1;fontStyle=1;fontSize=12;" parent="1" vertex="1"><mxGeometry x="40" y="630" width="720" height="30" as="geometry"/></mxCell><mxCell id="legend-title" value="Легенда:" style="text;html=1;strokeColor=none;fillColor=none;align=left;verticalAlign=middle;whiteSpace=wrap;rounded=0;fontStyle=1;fontSize=11;" parent="1" vertex="1"><mxGeometry x="40" y="680" width="80" height="20" as="geometry"/></mxCell><mxCell id="legend-t3" value="Task 3: MVP Депозиты (недели 1-6)" style="rounded=1;whiteSpace=wrap;html=1;fillColor=#d5e8d4;strokeColor=#82b366;fontSize=10;" parent="1" vertex="1"><mxGeometry x="40" y="705" width="240" height="25" as="geometry"/></mxCell><mxCell id="legend-t4" value="Task 4: Передача ставок (недели 7-14)" style="rounded=1;whiteSpace=wrap;html=1;fillColor=#ffe6cc;strokeColor=#d79b00;fontSize=10;" parent="1" vertex="1"><mxGeometry x="300" y="705" width="260" height="25" as="geometry"/></mxCell><mxCell id="legend-post" value="Post-MVP улучшения (месяцы 5-12)" style="rounded=1;whiteSpace=wrap;html=1;fillColor=#f8cecc;strokeColor=#b85450;fontSize=10;" parent="1" vertex="1"><mxGeometry x="580" y="705" width="240" height="25" as="geometry"/></mxCell><mxCell id="note" value="Task 3 (6 недель) и Task 4 (8 недель) выполняются последовательно. Общее время: 14 недель = 3.5 месяца." style="text;html=1;strokeColor=#666666;fillColor=#f5f5f5;align=left;verticalAlign=middle;whiteSpace=wrap;rounded=1;fontSize=10;fontColor=#333333;" parent="1" vertex="1"><mxGeometry x="40" y="745" width="1160" height="30" as="geometry"/></mxCell></root></mxGraphModel>